<svg height="16" viewBox="0 0 14 16" width="14" xmlns="http://www.w3.org/2000/svg"><path d="m6.3 5.69a.942.942 0 0 1 -.28-.7c0-.28.09-.52.28-.7s.42-.28.7-.28.52.09.7.28.28.42.28.7-.09.52-.28.7a1 1 0 0 1 -.7.3c-.28 0-.52-.11-.7-.3zm1.7 2.3c-.02-.25-.11-.48-.31-.69-.2-.19-.42-.3-.69-.31h-1c-.27.02-.48.13-.69.31-.2.2-.3.44-.31.69h1v3c.02.27.11.5.31.69.2.2.42.31.69.31h1c.27 0 .48-.11.69-.31.2-.19.3-.42.31-.69h-1v-3.01zm-1-5.69c-3.14 0-5.7 2.54-5.7 5.68s2.56 5.7 5.7 5.7 5.7-2.55 5.7-5.7-2.56-5.69-5.7-5.69zm0-1.32c3.86 0 7 3.14 7 7s-3.14 7-7 7-7-3.12-7-7 3.14-7 7-7z" fill-rule="evenodd"/></svg>