<svg height="16" viewBox="0 0 12 16" width="12" xmlns="http://www.w3.org/2000/svg"><path d="m2 13c0 .59 0 1-.59 1h-.82c-.59 0-.59-.41-.59-1s0-1 .59-1h.81c.59 0 .59.41.59 1zm2.59-9h6.81c.59 0 .59-.41.59-1s0-1-.59-1h-6.81c-.59 0-.59.41-.59 1s0 1 .59 1zm-3.18 3h-.82c-.59 0-.59.41-.59 1s0 1 .59 1h.81c.59 0 .59-.41.59-1s0-1-.59-1zm0-5h-.82c-.59 0-.59.41-.59 1s0 1 .59 1h.81c.59 0 .59-.41.59-1s0-1-.59-1zm10 5h-6.82c-.59 0-.59.41-.59 1s0 1 .59 1h6.81c.59 0 .59-.41.59-1s0-1-.59-1zm0 5h-6.82c-.59 0-.59.41-.59 1s0 1 .59 1h6.81c.59 0 .59-.41.59-1s0-1-.59-1z" fill-rule="evenodd"/></svg>