<svg height="16" viewBox="0 0 12 16" width="12" xmlns="http://www.w3.org/2000/svg"><path d="m6 0c-3.31 0-6 2.69-6 6v1c0 .55.45 1 1 1v5c0 1.1 2.24 2 5 2s5-.9 5-2v-5c.55 0 1-.45 1-1v-1c0-3.31-2.69-6-6-6zm3 10v.5c0 .28-.22.5-.5.5s-.5-.22-.5-.5v-.5c0-.28-.22-.5-.5-.5s-.5.22-.5.5v2.5c0 .28-.22.5-.5.5s-.5-.22-.5-.5v-2c0-.28-.22-.5-.5-.5s-.5.22-.5.5v.5c0 .55-.45 1-1 1s-1-.45-1-1v-1c-.55 0-1-.45-1-1v-1.8c.91.49 2.36.8 4 .8s3.09-.31 4-.8v1.8c0 .55-.45 1-1 1zm-3-3c-1.68 0-3.12-.41-3.71-1 .59-.59 2.03-1 3.71-1s3.12.41 3.71 1c-.59.59-2.03 1-3.71 1zm0-3c-2.76 0-5 .89-5 2 0-2.76 2.24-5 5-5s5 2.24 5 5c0-1.1-2.24-2-5-2z" fill-rule="evenodd"/></svg>