<svg height="16" viewBox="0 0 16 16" width="16" xmlns="http://www.w3.org/2000/svg"><path d="m9 5h-1v-1h1zm4 3h-1v1h1zm-7-3h-1v1h1zm-1 3h-1v1h1zm11-5.5-.5-.5-6.5 5c-.06-.02-1 0-1 0-.55 0-1 .45-1 1v1c0 .55.45 1 1 1h1c.55 0 1-.45 1-1v-.92zm-1.59 4.09c.19.61.3 1.25.3 1.91 0 3.42-2.78 6.2-6.2 6.2s-6.21-2.78-6.21-6.2 2.78-6.2 6.2-6.2c1.2 0 2.31.34 3.27.94l.94-.94a7.459 7.459 0 0 0 -4.2-1.3c-4.15 0-7.51 3.36-7.51 7.5s3.36 7.5 7.5 7.5 7.5-3.36 7.5-7.5c0-1.03-.2-2.02-.59-2.91z" fill-rule="evenodd"/></svg>