<svg height="16" viewBox="0 0 12 16" width="12" xmlns="http://www.w3.org/2000/svg"><path d="m11 11.28v-6.28c-.03-.78-.34-1.47-.94-2.06s-1.28-.91-2.06-.94h-1v-2l-3 3 3 3v-2h1c.27.02.48.11.69.31s.3.42.31.69v6.28a1.993 1.993 0 0 0 1 3.72 1.993 1.993 0 0 0 1-3.72zm-1 2.92c-.66 0-1.2-.55-1.2-1.2s.55-1.2 1.2-1.2 1.2.55 1.2 1.2-.55 1.2-1.2 1.2zm-6-11.2c0-1.11-.89-2-2-2a1.993 1.993 0 0 0 -1 3.72v6.56a1.993 1.993 0 0 0 1 3.72 1.993 1.993 0 0 0 1-3.72v-6.56c.59-.34 1-.98 1-1.72zm-.8 10c0 .66-.55 1.2-1.2 1.2s-1.2-.55-1.2-1.2.55-1.2 1.2-1.2 1.2.55 1.2 1.2zm-1.2-8.8c-.66 0-1.2-.55-1.2-1.2s.55-1.2 1.2-1.2 1.2.55 1.2 1.2-.55 1.2-1.2 1.2z" fill-rule="evenodd"/></svg>