<svg height="16" viewBox="0 0 14 16" width="14" xmlns="http://www.w3.org/2000/svg"><path d="m5 12h-1c-.27-.02-.48-.11-.69-.31s-.3-.42-.31-.69v-6.28a1.993 1.993 0 0 0 -1-3.72 1.993 1.993 0 0 0 -1 3.72v6.28c.03.78.34 1.47.94 2.06s1.28.91 2.06.94h1v2l3-3-3-3zm-3-10.2c.66 0 1.2.55 1.2 1.2s-.55 1.2-1.2 1.2-1.2-.55-1.2-1.2.55-1.2 1.2-1.2zm11 9.48v-6.28c-.03-.78-.34-1.47-.94-2.06s-1.28-.91-2.06-.94h-1v-2l-3 3 3 3v-2h1c.27.02.48.11.69.31s.3.42.31.69v6.28a1.993 1.993 0 0 0 1 3.72 1.993 1.993 0 0 0 1-3.72zm-1 2.92c-.66 0-1.2-.55-1.2-1.2s.55-1.2 1.2-1.2 1.2.55 1.2 1.2-.55 1.2-1.2 1.2z" fill-rule="evenodd"/></svg>