<svg height="16" viewBox="0 0 13 16" width="13" xmlns="http://www.w3.org/2000/svg"><path d="m12.01 13c0 .59 0 1-.59 1h-6.82c-.59 0-.59-.41-.59-1s0-1 .59-1h6.81c.59 0 .59.41.59 1zm-7.41-9h6.81c.59 0 .59-.41.59-1s0-1-.59-1h-6.81c-.59 0-.59.41-.59 1s0 1 .59 1zm6.81 3h-6.81c-.59 0-.59.41-.59 1s0 1 .59 1h6.81c.59 0 .59-.41.59-1s0-1-.59-1zm-9.4-6h-.72c-.3.19-.58.25-1.03.34v.66h.75v2.14h-.84v.86h2.84v-.86h-1zm.392 8.12c-.129 0-.592.04-.802.07.53-.56 1.14-1.25 1.14-1.89-.02-.78-.56-1.3-1.36-1.3-.59 0-.97.2-1.38.64l.58.58c.19-.19.38-.38.64-.38.28 0 .48.16.48.52 0 .53-.77 1.2-1.7 2.06v.58h3v-.88zm-.222 3.79v-.03c.44-.19.64-.47.64-.86 0-.7-.56-1.11-1.44-1.11-.48 0-.89.19-1.28.52l.55.64c.25-.2.44-.31.69-.31.27 0 .42.13.42.36 0 .27-.2.44-.86.44v.75c.83 0 .98.17.98.47 0 .25-.23.38-.58.38-.28 0-.56-.14-.81-.38l-.48.66c.3.36.77.56 1.41.56.83 0 1.53-.41 1.53-1.16 0-.5-.31-.81-.77-.94z" fill-rule="evenodd"/></svg>